# xmcd
#
# Track frame offsets:
#	150
#	18948
#	57371
#	72464
#	91193
#	111292
#	129245
#	147426
#	165581
#	180523
#	198966
#	219143
#	236166
#	258847
#	275372
#	295057
#	312423
#	336826
#
# Disc length: 4738 seconds
#
# Revision: 0
# Processed by: cddbd v1.5.2PL0 Copyright (c) Steve Scherf et al.
# Submitted via: dBpowerAMP V4.0
#
DISCID=04128012
DTITLE=John Meyer - John Meyer Collection
DYEAR=1900
DGENRE=Blues
TTITLE0=Bittersweet Poetry
TTITLE1=Route 66
TTITLE2=Waiting On The World To Change
TTITLE3=Your Body Is A Wonderland
TTITLE4=Bigger Than My Body
TTITLE5=Daughters
TTITLE6=Belief
TTITLE7=Slow Dancing In A Burning Room
TTITLE8=The Heart Of Life
TTITLE9=Gravity
TTITLE10=Why Georgia
TTITLE11=My Stupid Mouth
TTITLE12=Comfortable
TTITLE13=Not Myself
TTITLE14=Message In A Bottle (acoustic)
TTITLE15=No Such Thing
TTITLE16=Come Back To Bed
TTITLE17=Dreaming With A Broken Heart
EXTD=
EXTT0=
EXTT1=
EXTT2=
EXTT3=
EXTT4=
EXTT5=
EXTT6=
EXTT7=
EXTT8=
EXTT9=
EXTT10=
EXTT11=
EXTT12=
EXTT13=
EXTT14=
EXTT15=
EXTT16=
EXTT17=
PLAYORDER=
